<svg width="600" height="400" xmlns="http://www.w3.org/2000/svg">
  <!-- Background -->
  <rect width="600" height="400" fill="white"/>

  <!-- Border -->
  <rect x="10" y="10" width="580" height="380" fill="none" stroke="#2E86AB" stroke-width="2"/>

  <!-- Header -->
  <rect x="10" y="10" width="580" height="50" fill="#2E86AB"/>
  <text x="30" y="42" font-family="Arial, sans-serif" font-size="20" font-weight="bold" fill="white">
    SGU Client - DataFrame Output Example
  </text>

  <!-- Table Header -->
  <rect x="20" y="70" width="560" height="30" fill="#E8F4F8"/>
  <text x="30" y="90" font-family="monospace" font-size="14" font-weight="bold" fill="#1a1a1a">observation_date</text>
  <text x="240" y="90" font-family="monospace" font-size="14" font-weight="bold" fill="#1a1a1a">grundvattenniva_m_o_h</text>
  <text x="460" y="90" font-family="monospace" font-size="14" font-weight="bold" fill="#1a1a1a">metod</text>

  <!-- Data Row 1 -->
  <rect x="20" y="100" width="560" height="30" fill="#F8F9FA"/>
  <text x="30" y="120" font-family="monospace" font-size="12" fill="#1a1a1a">2023-01-15 10:00:00</text>
  <text x="270" y="120" font-family="monospace" font-size="12" fill="#1a1a1a">45.23</text>
  <text x="470" y="120" font-family="monospace" font-size="12" fill="#1a1a1a">Manual</text>

  <!-- Data Row 2 -->
  <rect x="20" y="130" width="560" height="30" fill="white"/>
  <text x="30" y="150" font-family="monospace" font-size="12" fill="#1a1a1a">2023-02-10 09:30:00</text>
  <text x="270" y="150" font-family="monospace" font-size="12" fill="#1a1a1a">45.67</text>
  <text x="470" y="150" font-family="monospace" font-size="12" fill="#1a1a1a">Auto</text>

  <!-- Data Row 3 -->
  <rect x="20" y="160" width="560" height="30" fill="#F8F9FA"/>
  <text x="30" y="180" font-family="monospace" font-size="12" fill="#1a1a1a">2023-03-05 11:15:00</text>
  <text x="270" y="180" font-family="monospace" font-size="12" fill="#1a1a1a">44.89</text>
  <text x="470" y="180" font-family="monospace" font-size="12" fill="#1a1a1a">Manual</text>

  <!-- Data Row 4 -->
  <rect x="20" y="190" width="560" height="30" fill="white"/>
  <text x="30" y="210" font-family="monospace" font-size="12" fill="#1a1a1a">2023-04-12 14:20:00</text>
  <text x="270" y="210" font-family="monospace" font-size="12" fill="#1a1a1a">46.12</text>
  <text x="470" y="210" font-family="monospace" font-size="12" fill="#1a1a1a">Auto</text>

  <!-- Data Row 5 -->
  <rect x="20" y="220" width="560" height="30" fill="#F8F9FA"/>
  <text x="30" y="240" font-family="monospace" font-size="12" fill="#1a1a1a">2023-05-18 08:45:00</text>
  <text x="270" y="240" font-family="monospace" font-size="12" fill="#1a1a1a">45.98</text>
  <text x="470" y="240" font-family="monospace" font-size="12" fill="#1a1a1a">Manual</text>

  <!-- Footer text -->
  <text x="300" y="370" font-family="Arial, sans-serif" font-size="11" fill="#666666" text-anchor="middle" font-style="italic">
    Example: Groundwater measurements converted to pandas DataFrame
  </text>
</svg>
