<?xml version="1.0" encoding="utf-8" standalone="no"?>
<!DOCTYPE svg PUBLIC "-//W3C//DTD SVG 1.1//EN"
  "http://www.w3.org/Graphics/SVG/1.1/DTD/svg11.dtd">
<svg xmlns:xlink="http://www.w3.org/1999/xlink" width="460.8pt" height="345.6pt" viewBox="0 0 460.8 345.6" xmlns="http://www.w3.org/2000/svg" version="1.1">
 <metadata>
  <rdf:RDF xmlns:dc="http://purl.org/dc/elements/1.1/" xmlns:cc="http://creativecommons.org/ns#" xmlns:rdf="http://www.w3.org/1999/02/22-rdf-syntax-ns#">
   <cc:Work>
    <dc:type rdf:resource="http://purl.org/dc/dcmitype/StillImage"/>
    <dc:date>2025-12-15T21:09:12.693599</dc:date>
    <dc:format>image/svg+xml</dc:format>
    <dc:creator>
     <cc:Agent>
      <dc:title>Matplotlib v3.10.7, https://matplotlib.org/</dc:title>
     </cc:Agent>
    </dc:creator>
   </cc:Work>
  </rdf:RDF>
 </metadata>
 <defs>
  <style type="text/css">*{stroke-linejoin: round; stroke-linecap: butt}</style>
 </defs>
 <g id="figure_1">
  <g id="patch_1">
   <path d="M 0 345.6 
L 460.8 345.6 
L 460.8 0 
L 0 0 
z
" style="fill: #ffffff"/>
  </g>
  <g id="axes_1">
   <g id="patch_2">
    <path d="M 57.6 276.48 
L 414.72 276.48 
L 414.72 41.472 
L 57.6 41.472 
z
" style="fill: #ffffff"/>
   </g>
   <g id="matplotlib.axis_1">
    <g id="xtick_1">
     <g id="line2d_1">
      <defs>
       <path id="m29000cad85" d="M 0 0 
L 0 3.5 
" style="stroke: #000000; stroke-width: 0.8"/>
      </defs>
      <g>
       <use xlink:href="#m29000cad85" x="102.018635" y="276.48" style="stroke: #000000; stroke-width: 0.8"/>
      </g>
     </g>
     <g id="text_1">
      <!-- 2024-11 -->
      <g transform="translate(64.793814 310.951846) rotate(-30) scale(0.1 -0.1)">
       <defs>
        <path id="DejaVuSans-32" d="M 1228 531 
L 3431 531 
L 3431 0 
L 469 0 
L 469 531 
Q 828 903 1448 1529 
Q 2069 2156 2228 2338 
Q 2531 2678 2651 2914 
Q 2772 3150 2772 3378 
Q 2772 3750 2511 3984 
Q 2250 4219 1831 4219 
Q 1534 4219 1204 4116 
Q 875 4013 500 3803 
L 500 4441 
Q 881 4594 1212 4672 
Q 1544 4750 1819 4750 
Q 2544 4750 2975 4387 
Q 3406 4025 3406 3419 
Q 3406 3131 3298 2873 
Q 3191 2616 2906 2266 
Q 2828 2175 2409 1742 
Q 1991 1309 1228 531 
z
" transform="scale(0.015625)"/>
        <path id="DejaVuSans-30" d="M 2034 4250 
Q 1547 4250 1301 3770 
Q 1056 3291 1056 2328 
Q 1056 1369 1301 889 
Q 1547 409 2034 409 
Q 2525 409 2770 889 
Q 3016 1369 3016 2328 
Q 3016 3291 2770 3770 
Q 2525 4250 2034 4250 
z
M 2034 4750 
Q 2819 4750 3233 4129 
Q 3647 3509 3647 2328 
Q 3647 1150 3233 529 
Q 2819 -91 2034 -91 
Q 1250 -91 836 529 
Q 422 1150 422 2328 
Q 422 3509 836 4129 
Q 1250 4750 2034 4750 
z
" transform="scale(0.015625)"/>
        <path id="DejaVuSans-34" d="M 2419 4116 
L 825 1625 
L 2419 1625 
L 2419 4116 
z
M 2253 4666 
L 3047 4666 
L 3047 1625 
L 3713 1625 
L 3713 1100 
L 3047 1100 
L 3047 0 
L 2419 0 
L 2419 1100 
L 313 1100 
L 313 1709 
L 2253 4666 
z
" transform="scale(0.015625)"/>
        <path id="DejaVuSans-2d" d="M 313 2009 
L 1997 2009 
L 1997 1497 
L 313 1497 
L 313 2009 
z
" transform="scale(0.015625)"/>
        <path id="DejaVuSans-31" d="M 794 531 
L 1825 531 
L 1825 4091 
L 703 3866 
L 703 4441 
L 1819 4666 
L 2450 4666 
L 2450 531 
L 3481 531 
L 3481 0 
L 794 0 
L 794 531 
z
" transform="scale(0.015625)"/>
       </defs>
       <use xlink:href="#DejaVuSans-32"/>
       <use xlink:href="#DejaVuSans-30" transform="translate(63.623047 0)"/>
       <use xlink:href="#DejaVuSans-32" transform="translate(127.246094 0)"/>
       <use xlink:href="#DejaVuSans-34" transform="translate(190.869141 0)"/>
       <use xlink:href="#DejaVuSans-2d" transform="translate(254.492188 0)"/>
       <use xlink:href="#DejaVuSans-31" transform="translate(290.576172 0)"/>
       <use xlink:href="#DejaVuSans-31" transform="translate(354.199219 0)"/>
      </g>
     </g>
    </g>
    <g id="xtick_2">
     <g id="line2d_2">
      <g>
       <use xlink:href="#m29000cad85" x="156.029348" y="276.48" style="stroke: #000000; stroke-width: 0.8"/>
      </g>
     </g>
     <g id="text_2">
      <!-- 2025-01 -->
      <g transform="translate(118.804527 310.951846) rotate(-30) scale(0.1 -0.1)">
       <defs>
        <path id="DejaVuSans-35" d="M 691 4666 
L 3169 4666 
L 3169 4134 
L 1269 4134 
L 1269 2991 
Q 1406 3038 1543 3061 
Q 1681 3084 1819 3084 
Q 2600 3084 3056 2656 
Q 3513 2228 3513 1497 
Q 3513 744 3044 326 
Q 2575 -91 1722 -91 
Q 1428 -91 1123 -41 
Q 819 9 494 109 
L 494 744 
Q 775 591 1075 516 
Q 1375 441 1709 441 
Q 2250 441 2565 725 
Q 2881 1009 2881 1497 
Q 2881 1984 2565 2268 
Q 2250 2553 1709 2553 
Q 1456 2553 1204 2497 
Q 953 2441 691 2322 
L 691 4666 
z
" transform="scale(0.015625)"/>
       </defs>
       <use xlink:href="#DejaVuSans-32"/>
       <use xlink:href="#DejaVuSans-30" transform="translate(63.623047 0)"/>
       <use xlink:href="#DejaVuSans-32" transform="translate(127.246094 0)"/>
       <use xlink:href="#DejaVuSans-35" transform="translate(190.869141 0)"/>
       <use xlink:href="#DejaVuSans-2d" transform="translate(254.492188 0)"/>
       <use xlink:href="#DejaVuSans-30" transform="translate(290.576172 0)"/>
       <use xlink:href="#DejaVuSans-31" transform="translate(354.199219 0)"/>
      </g>
     </g>
    </g>
    <g id="xtick_3">
     <g id="line2d_3">
      <g>
       <use xlink:href="#m29000cad85" x="208.269217" y="276.48" style="stroke: #000000; stroke-width: 0.8"/>
      </g>
     </g>
     <g id="text_3">
      <!-- 2025-03 -->
      <g transform="translate(171.044396 310.951846) rotate(-30) scale(0.1 -0.1)">
       <defs>
        <path id="DejaVuSans-33" d="M 2597 2516 
Q 3050 2419 3304 2112 
Q 3559 1806 3559 1356 
Q 3559 666 3084 287 
Q 2609 -91 1734 -91 
Q 1441 -91 1130 -33 
Q 819 25 488 141 
L 488 750 
Q 750 597 1062 519 
Q 1375 441 1716 441 
Q 2309 441 2620 675 
Q 2931 909 2931 1356 
Q 2931 1769 2642 2001 
Q 2353 2234 1838 2234 
L 1294 2234 
L 1294 2753 
L 1863 2753 
Q 2328 2753 2575 2939 
Q 2822 3125 2822 3475 
Q 2822 3834 2567 4026 
Q 2313 4219 1838 4219 
Q 1578 4219 1281 4162 
Q 984 4106 628 3988 
L 628 4550 
Q 988 4650 1302 4700 
Q 1616 4750 1894 4750 
Q 2613 4750 3031 4423 
Q 3450 4097 3450 3541 
Q 3450 3153 3228 2886 
Q 3006 2619 2597 2516 
z
" transform="scale(0.015625)"/>
       </defs>
       <use xlink:href="#DejaVuSans-32"/>
       <use xlink:href="#DejaVuSans-30" transform="translate(63.623047 0)"/>
       <use xlink:href="#DejaVuSans-32" transform="translate(127.246094 0)"/>
       <use xlink:href="#DejaVuSans-35" transform="translate(190.869141 0)"/>
       <use xlink:href="#DejaVuSans-2d" transform="translate(254.492188 0)"/>
       <use xlink:href="#DejaVuSans-30" transform="translate(290.576172 0)"/>
       <use xlink:href="#DejaVuSans-33" transform="translate(354.199219 0)"/>
      </g>
     </g>
    </g>
    <g id="xtick_4">
     <g id="line2d_4">
      <g>
       <use xlink:href="#m29000cad85" x="262.27993" y="276.48" style="stroke: #000000; stroke-width: 0.8"/>
      </g>
     </g>
     <g id="text_4">
      <!-- 2025-05 -->
      <g transform="translate(225.055109 310.951846) rotate(-30) scale(0.1 -0.1)">
       <use xlink:href="#DejaVuSans-32"/>
       <use xlink:href="#DejaVuSans-30" transform="translate(63.623047 0)"/>
       <use xlink:href="#DejaVuSans-32" transform="translate(127.246094 0)"/>
       <use xlink:href="#DejaVuSans-35" transform="translate(190.869141 0)"/>
       <use xlink:href="#DejaVuSans-2d" transform="translate(254.492188 0)"/>
       <use xlink:href="#DejaVuSans-30" transform="translate(290.576172 0)"/>
       <use xlink:href="#DejaVuSans-35" transform="translate(354.199219 0)"/>
      </g>
     </g>
    </g>
    <g id="xtick_5">
     <g id="line2d_5">
      <g>
       <use xlink:href="#m29000cad85" x="316.290642" y="276.48" style="stroke: #000000; stroke-width: 0.8"/>
      </g>
     </g>
     <g id="text_5">
      <!-- 2025-07 -->
      <g transform="translate(279.065821 310.951846) rotate(-30) scale(0.1 -0.1)">
       <defs>
        <path id="DejaVuSans-37" d="M 525 4666 
L 3525 4666 
L 3525 4397 
L 1831 0 
L 1172 0 
L 2766 4134 
L 525 4134 
L 525 4666 
z
" transform="scale(0.015625)"/>
       </defs>
       <use xlink:href="#DejaVuSans-32"/>
       <use xlink:href="#DejaVuSans-30" transform="translate(63.623047 0)"/>
       <use xlink:href="#DejaVuSans-32" transform="translate(127.246094 0)"/>
       <use xlink:href="#DejaVuSans-35" transform="translate(190.869141 0)"/>
       <use xlink:href="#DejaVuSans-2d" transform="translate(254.492188 0)"/>
       <use xlink:href="#DejaVuSans-30" transform="translate(290.576172 0)"/>
       <use xlink:href="#DejaVuSans-37" transform="translate(354.199219 0)"/>
      </g>
     </g>
    </g>
    <g id="xtick_6">
     <g id="line2d_6">
      <g>
       <use xlink:href="#m29000cad85" x="371.186776" y="276.48" style="stroke: #000000; stroke-width: 0.8"/>
      </g>
     </g>
     <g id="text_6">
      <!-- 2025-09 -->
      <g transform="translate(333.961955 310.951846) rotate(-30) scale(0.1 -0.1)">
       <defs>
        <path id="DejaVuSans-39" d="M 703 97 
L 703 672 
Q 941 559 1184 500 
Q 1428 441 1663 441 
Q 2288 441 2617 861 
Q 2947 1281 2994 2138 
Q 2813 1869 2534 1725 
Q 2256 1581 1919 1581 
Q 1219 1581 811 2004 
Q 403 2428 403 3163 
Q 403 3881 828 4315 
Q 1253 4750 1959 4750 
Q 2769 4750 3195 4129 
Q 3622 3509 3622 2328 
Q 3622 1225 3098 567 
Q 2575 -91 1691 -91 
Q 1453 -91 1209 -44 
Q 966 3 703 97 
z
M 1959 2075 
Q 2384 2075 2632 2365 
Q 2881 2656 2881 3163 
Q 2881 3666 2632 3958 
Q 2384 4250 1959 4250 
Q 1534 4250 1286 3958 
Q 1038 3666 1038 3163 
Q 1038 2656 1286 2365 
Q 1534 2075 1959 2075 
z
" transform="scale(0.015625)"/>
       </defs>
       <use xlink:href="#DejaVuSans-32"/>
       <use xlink:href="#DejaVuSans-30" transform="translate(63.623047 0)"/>
       <use xlink:href="#DejaVuSans-32" transform="translate(127.246094 0)"/>
       <use xlink:href="#DejaVuSans-35" transform="translate(190.869141 0)"/>
       <use xlink:href="#DejaVuSans-2d" transform="translate(254.492188 0)"/>
       <use xlink:href="#DejaVuSans-30" transform="translate(290.576172 0)"/>
       <use xlink:href="#DejaVuSans-39" transform="translate(354.199219 0)"/>
      </g>
     </g>
    </g>
    <g id="text_7">
     <!-- observation_date -->
     <g transform="translate(192.813906 324.351346) scale(0.1 -0.1)">
      <defs>
       <path id="DejaVuSans-6f" d="M 1959 3097 
Q 1497 3097 1228 2736 
Q 959 2375 959 1747 
Q 959 1119 1226 758 
Q 1494 397 1959 397 
Q 2419 397 2687 759 
Q 2956 1122 2956 1747 
Q 2956 2369 2687 2733 
Q 2419 3097 1959 3097 
z
M 1959 3584 
Q 2709 3584 3137 3096 
Q 3566 2609 3566 1747 
Q 3566 888 3137 398 
Q 2709 -91 1959 -91 
Q 1206 -91 779 398 
Q 353 888 353 1747 
Q 353 2609 779 3096 
Q 1206 3584 1959 3584 
z
" transform="scale(0.015625)"/>
       <path id="DejaVuSans-62" d="M 3116 1747 
Q 3116 2381 2855 2742 
Q 2594 3103 2138 3103 
Q 1681 3103 1420 2742 
Q 1159 2381 1159 1747 
Q 1159 1113 1420 752 
Q 1681 391 2138 391 
Q 2594 391 2855 752 
Q 3116 1113 3116 1747 
z
M 1159 2969 
Q 1341 3281 1617 3432 
Q 1894 3584 2278 3584 
Q 2916 3584 3314 3078 
Q 3713 2572 3713 1747 
Q 3713 922 3314 415 
Q 2916 -91 2278 -91 
Q 1894 -91 1617 61 
Q 1341 213 1159 525 
L 1159 0 
L 581 0 
L 581 4863 
L 1159 4863 
L 1159 2969 
z
" transform="scale(0.015625)"/>
       <path id="DejaVuSans-73" d="M 2834 3397 
L 2834 2853 
Q 2591 2978 2328 3040 
Q 2066 3103 1784 3103 
Q 1356 3103 1142 2972 
Q 928 2841 928 2578 
Q 928 2378 1081 2264 
Q 1234 2150 1697 2047 
L 1894 2003 
Q 2506 1872 2764 1633 
Q 3022 1394 3022 966 
Q 3022 478 2636 193 
Q 2250 -91 1575 -91 
Q 1294 -91 989 -36 
Q 684 19 347 128 
L 347 722 
Q 666 556 975 473 
Q 1284 391 1588 391 
Q 1994 391 2212 530 
Q 2431 669 2431 922 
Q 2431 1156 2273 1281 
Q 2116 1406 1581 1522 
L 1381 1569 
Q 847 1681 609 1914 
Q 372 2147 372 2553 
Q 372 3047 722 3315 
Q 1072 3584 1716 3584 
Q 2034 3584 2315 3537 
Q 2597 3491 2834 3397 
z
" transform="scale(0.015625)"/>
       <path id="DejaVuSans-65" d="M 3597 1894 
L 3597 1613 
L 953 1613 
Q 991 1019 1311 708 
Q 1631 397 2203 397 
Q 2534 397 2845 478 
Q 3156 559 3463 722 
L 3463 178 
Q 3153 47 2828 -22 
Q 2503 -91 2169 -91 
Q 1331 -91 842 396 
Q 353 884 353 1716 
Q 353 2575 817 3079 
Q 1281 3584 2069 3584 
Q 2775 3584 3186 3129 
Q 3597 2675 3597 1894 
z
M 3022 2063 
Q 3016 2534 2758 2815 
Q 2500 3097 2075 3097 
Q 1594 3097 1305 2825 
Q 1016 2553 972 2059 
L 3022 2063 
z
" transform="scale(0.015625)"/>
       <path id="DejaVuSans-72" d="M 2631 2963 
Q 2534 3019 2420 3045 
Q 2306 3072 2169 3072 
Q 1681 3072 1420 2755 
Q 1159 2438 1159 1844 
L 1159 0 
L 581 0 
L 581 3500 
L 1159 3500 
L 1159 2956 
Q 1341 3275 1631 3429 
Q 1922 3584 2338 3584 
Q 2397 3584 2469 3576 
Q 2541 3569 2628 3553 
L 2631 2963 
z
" transform="scale(0.015625)"/>
       <path id="DejaVuSans-76" d="M 191 3500 
L 800 3500 
L 1894 563 
L 2988 3500 
L 3597 3500 
L 2284 0 
L 1503 0 
L 191 3500 
z
" transform="scale(0.015625)"/>
       <path id="DejaVuSans-61" d="M 2194 1759 
Q 1497 1759 1228 1600 
Q 959 1441 959 1056 
Q 959 750 1161 570 
Q 1363 391 1709 391 
Q 2188 391 2477 730 
Q 2766 1069 2766 1631 
L 2766 1759 
L 2194 1759 
z
M 3341 1997 
L 3341 0 
L 2766 0 
L 2766 531 
Q 2569 213 2275 61 
Q 1981 -91 1556 -91 
Q 1019 -91 701 211 
Q 384 513 384 1019 
Q 384 1609 779 1909 
Q 1175 2209 1959 2209 
L 2766 2209 
L 2766 2266 
Q 2766 2663 2505 2880 
Q 2244 3097 1772 3097 
Q 1472 3097 1187 3025 
Q 903 2953 641 2809 
L 641 3341 
Q 956 3463 1253 3523 
Q 1550 3584 1831 3584 
Q 2591 3584 2966 3190 
Q 3341 2797 3341 1997 
z
" transform="scale(0.015625)"/>
       <path id="DejaVuSans-74" d="M 1172 4494 
L 1172 3500 
L 2356 3500 
L 2356 3053 
L 1172 3053 
L 1172 1153 
Q 1172 725 1289 603 
Q 1406 481 1766 481 
L 2356 481 
L 2356 0 
L 1766 0 
Q 1100 0 847 248 
Q 594 497 594 1153 
L 594 3053 
L 172 3053 
L 172 3500 
L 594 3500 
L 594 4494 
L 1172 4494 
z
" transform="scale(0.015625)"/>
       <path id="DejaVuSans-69" d="M 603 3500 
L 1178 3500 
L 1178 0 
L 603 0 
L 603 3500 
z
M 603 4863 
L 1178 4863 
L 1178 4134 
L 603 4134 
L 603 4863 
z
" transform="scale(0.015625)"/>
       <path id="DejaVuSans-6e" d="M 3513 2113 
L 3513 0 
L 2938 0 
L 2938 2094 
Q 2938 2591 2744 2837 
Q 2550 3084 2163 3084 
Q 1697 3084 1428 2787 
Q 1159 2491 1159 1978 
L 1159 0 
L 581 0 
L 581 3500 
L 1159 3500 
L 1159 2956 
Q 1366 3272 1645 3428 
Q 1925 3584 2291 3584 
Q 2894 3584 3203 3211 
Q 3513 2838 3513 2113 
z
" transform="scale(0.015625)"/>
       <path id="DejaVuSans-5f" d="M 3263 -1063 
L 3263 -1509 
L -63 -1509 
L -63 -1063 
L 3263 -1063 
z
" transform="scale(0.015625)"/>
       <path id="DejaVuSans-64" d="M 2906 2969 
L 2906 4863 
L 3481 4863 
L 3481 0 
L 2906 0 
L 2906 525 
Q 2725 213 2448 61 
Q 2172 -91 1784 -91 
Q 1150 -91 751 415 
Q 353 922 353 1747 
Q 353 2572 751 3078 
Q 1150 3584 1784 3584 
Q 2172 3584 2448 3432 
Q 2725 3281 2906 2969 
z
M 947 1747 
Q 947 1113 1208 752 
Q 1469 391 1925 391 
Q 2381 391 2643 752 
Q 2906 1113 2906 1747 
Q 2906 2381 2643 2742 
Q 2381 3103 1925 3103 
Q 1469 3103 1208 2742 
Q 947 2381 947 1747 
z
" transform="scale(0.015625)"/>
      </defs>
      <use xlink:href="#DejaVuSans-6f"/>
      <use xlink:href="#DejaVuSans-62" transform="translate(61.181641 0)"/>
      <use xlink:href="#DejaVuSans-73" transform="translate(124.658203 0)"/>
      <use xlink:href="#DejaVuSans-65" transform="translate(176.757812 0)"/>
      <use xlink:href="#DejaVuSans-72" transform="translate(238.28125 0)"/>
      <use xlink:href="#DejaVuSans-76" transform="translate(279.394531 0)"/>
      <use xlink:href="#DejaVuSans-61" transform="translate(338.574219 0)"/>
      <use xlink:href="#DejaVuSans-74" transform="translate(399.853516 0)"/>
      <use xlink:href="#DejaVuSans-69" transform="translate(439.0625 0)"/>
      <use xlink:href="#DejaVuSans-6f" transform="translate(466.845703 0)"/>
      <use xlink:href="#DejaVuSans-6e" transform="translate(528.027344 0)"/>
      <use xlink:href="#DejaVuSans-5f" transform="translate(591.40625 0)"/>
      <use xlink:href="#DejaVuSans-64" transform="translate(641.40625 0)"/>
      <use xlink:href="#DejaVuSans-61" transform="translate(704.882812 0)"/>
      <use xlink:href="#DejaVuSans-74" transform="translate(766.162109 0)"/>
      <use xlink:href="#DejaVuSans-65" transform="translate(805.371094 0)"/>
     </g>
    </g>
   </g>
   <g id="matplotlib.axis_2">
    <g id="ytick_1">
     <g id="line2d_7">
      <defs>
       <path id="m9d1eff64b8" d="M 0 0 
L -3.5 0 
" style="stroke: #000000; stroke-width: 0.8"/>
      </defs>
      <g>
       <use xlink:href="#m9d1eff64b8" x="57.6" y="234.63606" style="stroke: #000000; stroke-width: 0.8"/>
      </g>
     </g>
     <g id="text_8">
      <!-- 25.0 -->
      <g transform="translate(28.334375 238.435278) scale(0.1 -0.1)">
       <defs>
        <path id="DejaVuSans-2e" d="M 684 794 
L 1344 794 
L 1344 0 
L 684 0 
L 684 794 
z
" transform="scale(0.015625)"/>
       </defs>
       <use xlink:href="#DejaVuSans-32"/>
       <use xlink:href="#DejaVuSans-35" transform="translate(63.623047 0)"/>
       <use xlink:href="#DejaVuSans-2e" transform="translate(127.246094 0)"/>
       <use xlink:href="#DejaVuSans-30" transform="translate(159.033203 0)"/>
      </g>
     </g>
    </g>
    <g id="ytick_2">
     <g id="line2d_8">
      <g>
       <use xlink:href="#m9d1eff64b8" x="57.6" y="191.475729" style="stroke: #000000; stroke-width: 0.8"/>
      </g>
     </g>
     <g id="text_9">
      <!-- 25.5 -->
      <g transform="translate(28.334375 195.274948) scale(0.1 -0.1)">
       <use xlink:href="#DejaVuSans-32"/>
       <use xlink:href="#DejaVuSans-35" transform="translate(63.623047 0)"/>
       <use xlink:href="#DejaVuSans-2e" transform="translate(127.246094 0)"/>
       <use xlink:href="#DejaVuSans-35" transform="translate(159.033203 0)"/>
      </g>
     </g>
    </g>
    <g id="ytick_3">
     <g id="line2d_9">
      <g>
       <use xlink:href="#m9d1eff64b8" x="57.6" y="148.315398" style="stroke: #000000; stroke-width: 0.8"/>
      </g>
     </g>
     <g id="text_10">
      <!-- 26.0 -->
      <g transform="translate(28.334375 152.114617) scale(0.1 -0.1)">
       <defs>
        <path id="DejaVuSans-36" d="M 2113 2584 
Q 1688 2584 1439 2293 
Q 1191 2003 1191 1497 
Q 1191 994 1439 701 
Q 1688 409 2113 409 
Q 2538 409 2786 701 
Q 3034 994 3034 1497 
Q 3034 2003 2786 2293 
Q 2538 2584 2113 2584 
z
M 3366 4563 
L 3366 3988 
Q 3128 4100 2886 4159 
Q 2644 4219 2406 4219 
Q 1781 4219 1451 3797 
Q 1122 3375 1075 2522 
Q 1259 2794 1537 2939 
Q 1816 3084 2150 3084 
Q 2853 3084 3261 2657 
Q 3669 2231 3669 1497 
Q 3669 778 3244 343 
Q 2819 -91 2113 -91 
Q 1303 -91 875 529 
Q 447 1150 447 2328 
Q 447 3434 972 4092 
Q 1497 4750 2381 4750 
Q 2619 4750 2861 4703 
Q 3103 4656 3366 4563 
z
" transform="scale(0.015625)"/>
       </defs>
       <use xlink:href="#DejaVuSans-32"/>
       <use xlink:href="#DejaVuSans-36" transform="translate(63.623047 0)"/>
       <use xlink:href="#DejaVuSans-2e" transform="translate(127.246094 0)"/>
       <use xlink:href="#DejaVuSans-30" transform="translate(159.033203 0)"/>
      </g>
     </g>
    </g>
    <g id="ytick_4">
     <g id="line2d_10">
      <g>
       <use xlink:href="#m9d1eff64b8" x="57.6" y="105.155068" style="stroke: #000000; stroke-width: 0.8"/>
      </g>
     </g>
     <g id="text_11">
      <!-- 26.5 -->
      <g transform="translate(28.334375 108.954287) scale(0.1 -0.1)">
       <use xlink:href="#DejaVuSans-32"/>
       <use xlink:href="#DejaVuSans-36" transform="translate(63.623047 0)"/>
       <use xlink:href="#DejaVuSans-2e" transform="translate(127.246094 0)"/>
       <use xlink:href="#DejaVuSans-35" transform="translate(159.033203 0)"/>
      </g>
     </g>
    </g>
    <g id="ytick_5">
     <g id="line2d_11">
      <g>
       <use xlink:href="#m9d1eff64b8" x="57.6" y="61.994737" style="stroke: #000000; stroke-width: 0.8"/>
      </g>
     </g>
     <g id="text_12">
      <!-- 27.0 -->
      <g transform="translate(28.334375 65.793956) scale(0.1 -0.1)">
       <use xlink:href="#DejaVuSans-32"/>
       <use xlink:href="#DejaVuSans-37" transform="translate(63.623047 0)"/>
       <use xlink:href="#DejaVuSans-2e" transform="translate(127.246094 0)"/>
       <use xlink:href="#DejaVuSans-30" transform="translate(159.033203 0)"/>
      </g>
     </g>
    </g>
   </g>
   <g id="line2d_12">
    <path d="M 73.832727 264.244046 
L 74.718149 264.330367 
L 75.013279 264.416688 
L 75.60356 264.503008 
L 75.898701 264.589329 
L 76.488992 264.67565 
L 76.784122 264.76197 
L 77.521984 264.848291 
L 77.669544 264.934612 
L 77.817114 264.848291 
L 78.112254 265.107253 
L 78.850106 265.193574 
L 79.145246 265.279894 
L 79.587957 265.279894 
L 79.735527 265.452536 
L 80.030668 265.538856 
L 80.325808 265.625177 
L 81.3588 265.711498 
L 81.65394 265.797818 
L 82.096651 265.711498 
L 82.982073 264.76197 
L 83.129643 264.330367 
L 83.572364 261.050182 
L 84.015064 259.237448 
L 84.457785 258.2016 
L 84.900486 257.511035 
L 85.638337 257.165752 
L 87.851891 257.252073 
L 88.147032 257.338393 
L 89.622734 257.424714 
L 90.065445 257.597355 
L 90.803296 257.683676 
L 91.098437 257.769997 
L 92.574139 257.856317 
L 93.31199 258.2016 
L 94.049842 258.287921 
L 94.492552 258.546883 
L 94.640123 258.460562 
L 95.082833 258.633203 
L 95.673114 258.719524 
L 96.115825 258.892165 
L 96.706106 258.978486 
L 97.001247 259.064807 
L 97.443957 259.151127 
L 97.591528 259.237448 
L 97.886668 259.151127 
L 98.181809 259.237448 
L 98.329379 259.237448 
L 98.476949 259.410089 
L 99.06723 259.49641 
L 99.657511 259.755372 
L 100.395362 259.755372 
L 100.542933 259.928013 
L 100.985644 260.014334 
L 101.280794 260.100655 
L 101.871065 260.014334 
L 102.018635 259.928013 
L 103.494338 260.704899 
L 103.937049 260.618579 
L 104.084619 260.532258 
L 104.82247 260.87754 
L 106.003032 260.87754 
L 106.150602 262.08603 
L 106.298173 261.050182 
L 107.183594 261.136502 
L 107.626305 261.309144 
L 108.511726 261.395464 
L 108.806867 261.481785 
L 109.544718 261.568106 
L 109.987429 261.740747 
L 111.167991 261.827068 
L 111.610702 261.999709 
L 112.053412 262.08603 
L 112.348553 262.17235 
L 113.676695 262.258671 
L 114.119396 262.431312 
L 115.447528 262.517633 
L 115.595099 262.603954 
L 115.742669 262.517633 
L 115.890239 262.690274 
L 116.775661 262.776595 
L 117.365942 263.035557 
L 117.661082 263.121878 
L 117.956223 263.208198 
L 118.989214 263.294519 
L 119.284355 263.38084 
L 120.022206 263.46716 
L 120.464917 263.639802 
L 121.055198 263.726122 
L 121.497909 263.898764 
L 122.23576 263.985084 
L 122.38333 264.157726 
L 122.826041 264.071405 
L 123.121181 263.985084 
L 123.268752 263.985084 
L 123.563892 263.035557 
L 124.006603 260.532258 
L 125.039595 257.165752 
L 125.629876 255.957263 
L 127.548289 251.64123 
L 128.13857 250.864344 
L 128.43371 250.519061 
L 128.581281 250.43274 
L 128.876421 250.087458 
L 130.056983 248.792648 
L 130.204554 248.706327 
L 130.352124 248.447365 
L 130.794835 246.030387 
L 131.532686 241.973316 
L 132.418118 238.693131 
L 133.303529 236.880397 
L 133.598669 236.794076 
L 133.89381 236.535114 
L 134.336521 236.103511 
L 134.779231 236.103511 
L 134.926802 235.930869 
L 135.221942 236.189831 
L 135.369512 236.01719 
L 135.664653 235.930869 
L 136.254934 235.499266 
L 136.402504 235.326625 
L 136.992785 234.204456 
L 137.730636 233.859174 
L 138.025777 233.772853 
L 138.320917 233.600212 
L 138.468498 233.34125 
L 139.206339 233.34125 
L 140.534471 230.924271 
L 141.124752 231.355874 
L 141.272322 231.528516 
L 141.567463 230.665309 
L 141.862603 228.938896 
L 142.157754 229.802102 
L 142.305314 229.715782 
L 142.895605 228.593613 
L 143.043176 228.766255 
L 143.485876 228.420972 
L 143.781017 227.644086 
L 144.518868 224.795504 
L 144.814009 224.363901 
L 145.256719 222.119564 
L 145.55187 220.997395 
L 145.847 220.997395 
L 146.289711 219.702585 
L 146.584852 218.148813 
L 146.732422 217.976172 
L 146.879992 217.630889 
L 147.470283 213.919101 
L 148.798405 202.524774 
L 149.241126 200.107795 
L 149.683827 197.690817 
L 151.011959 192.597898 
L 151.159529 192.166294 
L 151.3071 192.166294 
L 152.487662 187.67762 
L 153.077943 185.692245 
L 153.815794 183.188945 
L 153.963364 183.361587 
L 154.110934 183.016304 
L 154.258505 181.721494 
L 154.553645 183.79319 
L 154.701215 183.706869 
L 155.291496 182.153098 
L 155.586637 182.153098 
L 155.734207 181.721494 
L 155.881777 180.513005 
L 156.176918 176.714896 
L 156.324488 176.973858 
L 156.472058 177.578102 
L 156.619629 177.491782 
L 156.767199 177.664423 
L 156.914769 178.61395 
L 157.20991 178.959233 
L 157.35748 178.872912 
L 157.50505 179.045554 
L 157.65262 179.390836 
L 157.800191 179.304516 
L 158.095331 178.354988 
L 158.242902 178.52763 
L 158.390472 179.045554 
L 158.538042 180.167722 
L 158.685612 180.254043 
L 158.833183 180.081402 
L 159.275893 179.218195 
L 159.571034 179.304516 
L 159.718604 179.218195 
L 160.013745 179.563478 
L 160.456455 179.131874 
L 161.194307 176.801217 
L 161.489457 175.592727 
L 161.784588 176.887537 
L 161.932158 176.628575 
L 162.227298 177.491782 
L 162.670009 177.23282 
L 162.817579 177.405461 
L 163.26029 179.045554 
L 163.40786 179.304516 
L 163.555431 179.304516 
L 163.998141 179.90876 
L 164.293282 180.254043 
L 164.440852 180.340364 
L 164.735993 179.563478 
L 164.883563 179.390836 
L 165.178714 180.081402 
L 165.473844 181.030929 
L 165.768984 181.635174 
L 165.916555 181.894136 
L 166.064125 182.671021 
L 166.359265 182.41206 
L 166.654406 181.030929 
L 166.801986 180.254043 
L 167.244687 176.801217 
L 167.982538 174.902162 
L 168.277679 173.089428 
L 168.572819 171.276694 
L 168.86796 167.823868 
L 169.1631 163.421514 
L 169.605811 160.659253 
L 169.753381 159.968688 
L 170.343662 153.321997 
L 170.933943 142.963517 
L 171.229094 141.323425 
L 171.524224 138.561164 
L 172.114505 131.655511 
L 172.409646 129.929098 
L 172.557216 129.238532 
L 172.704786 129.324853 
L 173.737778 123.886651 
L 174.475629 118.016846 
L 174.6232 117.585243 
L 174.91834 116.117792 
L 175.06591 115.686188 
L 175.951332 110.67959 
L 176.246472 106.881481 
L 176.541623 104.378182 
L 176.689183 103.946579 
L 176.836753 103.169693 
L 177.574605 92.638572 
L 178.164886 89.703669 
L 178.312466 89.876311 
L 178.607596 91.602724 
L 179.197888 87.631974 
L 179.345458 86.941408 
L 179.493018 87.027729 
L 179.935729 82.970658 
L 180.230869 83.574902 
L 180.378439 83.574902 
L 180.52601 82.366413 
L 180.67358 82.280093 
L 180.82115 81.157924 
L 181.116301 77.273494 
L 181.706572 61.908417 
L 182.001712 59.318797 
L 182.149282 58.887193 
L 182.591993 56.297574 
L 182.739563 55.089084 
L 183.182274 55.520688 
L 183.329844 55.607008 
L 183.624985 55.175405 
L 183.772555 55.348046 
L 183.920125 55.175405 
L 184.067696 54.830122 
L 184.510406 52.240502 
L 184.805547 52.154182 
L 185.100687 53.19003 
L 185.248258 53.27635 
L 185.690968 54.657481 
L 185.838539 54.916443 
L 185.986109 54.916443 
L 186.57639 53.19003 
L 187.019101 53.448992 
L 187.166671 53.19003 
L 187.314241 53.362671 
L 187.461812 53.880595 
L 187.609382 55.261726 
L 187.904522 60.527286 
L 188.347233 64.325395 
L 188.789944 63.116906 
L 188.937524 62.081058 
L 189.085084 61.908417 
L 189.232655 61.476813 
L 189.527795 59.7504 
L 189.675365 59.577759 
L 190.265646 56.297574 
L 190.413217 56.556536 
L 190.855938 58.45559 
L 191.298638 61.649455 
L 191.446208 62.512661 
L 191.593789 62.34002 
L 191.888919 63.203226 
L 192.036489 62.944264 
L 192.33163 63.893792 
L 192.4792 63.807471 
L 192.774341 64.325395 
L 192.921911 63.807471 
L 193.069481 63.980112 
L 193.217051 63.893792 
L 193.364622 62.944264 
L 193.512192 62.771623 
L 193.659762 62.771623 
L 193.807332 62.512661 
L 194.102473 63.289547 
L 194.397613 64.92964 
L 194.692754 67.173977 
L 194.840324 68.209825 
L 194.987894 68.209825 
L 195.135475 68.382466 
L 195.430605 70.022559 
L 195.578175 70.108879 
L 195.725746 70.540483 
L 196.020896 70.540483 
L 196.168456 71.576331 
L 196.611167 76.841891 
L 196.758737 77.532456 
L 196.906308 77.273494 
L 197.201448 76.237646 
L 197.349018 76.065005 
L 197.939299 78.568304 
L 198.38201 82.625375 
L 198.52958 83.056979 
L 198.972291 85.387636 
L 199.415002 89.876311 
L 200.300423 92.724893 
L 200.448004 92.724893 
L 200.743134 93.76074 
L 201.038275 92.983855 
L 201.185845 92.465931 
L 201.333415 91.171121 
L 201.480986 91.775365 
L 201.776126 94.364985 
L 201.923696 94.623947 
L 202.071267 95.141871 
L 202.218837 94.882909 
L 202.513977 96.609322 
L 202.661548 96.868284 
L 202.809118 96.695643 
L 202.956688 96.695643 
L 203.104258 96.436681 
L 203.399399 97.472529 
L 203.546969 97.64517 
L 203.694539 97.990453 
L 203.84211 97.299888 
L 204.579961 90.307914 
L 205.022672 87.545653 
L 205.170242 87.804615 
L 205.317812 87.20037 
L 205.465382 87.373012 
L 205.612953 86.941408 
L 205.760533 86.164522 
L 206.055663 87.027729 
L 206.203234 86.855088 
L 206.350804 87.20037 
L 206.498374 87.20037 
L 206.645944 86.509805 
L 206.793515 86.423484 
L 206.941085 86.596126 
L 207.088655 86.078202 
L 207.383796 86.855088 
L 207.531366 86.941408 
L 207.826506 87.631974 
L 207.974077 87.286691 
L 208.121647 87.890936 
L 208.269217 87.631974 
L 208.416798 87.11405 
L 208.564358 87.373012 
L 208.711928 87.20037 
L 209.007068 85.301316 
L 209.302219 84.092826 
L 209.597349 82.798017 
L 209.74492 82.970658 
L 209.89249 83.31594 
L 210.04006 83.056979 
L 210.187641 81.503207 
L 210.335211 81.503207 
L 210.777911 83.661223 
L 210.925482 82.970658 
L 211.073062 83.143299 
L 211.368192 85.301316 
L 211.515763 87.20037 
L 211.663333 86.337164 
L 211.810903 82.798017 
L 211.958473 82.280093 
L 212.548754 86.682446 
L 212.696325 86.941408 
L 212.991465 87.890936 
L 213.581746 96.781964 
L 213.876887 97.64517 
L 214.024457 97.64517 
L 214.172027 96.177719 
L 214.467168 95.918757 
L 214.614738 96.609322 
L 214.909879 99.285263 
L 215.057449 98.85366 
L 215.205019 99.457904 
L 215.352589 99.371583 
L 215.7953 97.299888 
L 215.94287 95.746116 
L 216.090441 95.573474 
L 216.238011 96.005078 
L 216.385581 95.487154 
L 216.680722 96.26404 
L 216.828292 96.436681 
L 216.975862 97.127246 
L 217.123432 97.213567 
L 217.271003 97.127246 
L 217.566143 99.026301 
L 217.713713 99.198942 
L 217.861284 100.062149 
L 218.156424 100.148469 
L 218.303994 100.839035 
L 218.599135 100.839035 
L 218.894275 101.961203 
L 219.041846 101.961203 
L 219.336986 102.82441 
L 219.484556 102.997051 
L 219.779697 104.809785 
L 219.927267 105.41403 
L 220.812689 112.923927 
L 220.960259 112.751286 
L 221.107829 111.888079 
L 221.40297 109.38478 
L 221.55054 109.039498 
L 221.69812 110.420628 
L 221.993251 114.477699 
L 222.140821 115.85883 
L 222.435961 119.397977 
L 222.583532 119.82958 
L 222.731102 119.225336 
L 223.173813 114.909302 
L 223.468953 116.031471 
L 223.764094 117.757884 
L 223.911664 117.15364 
L 224.206804 117.585243 
L 224.649515 120.174863 
L 224.797085 119.82958 
L 224.944656 120.606466 
L 225.092226 120.779107 
L 225.534937 119.915901 
L 225.682507 119.915901 
L 226.125218 125.354102 
L 226.420358 127.59844 
L 226.567928 127.339478 
L 226.715499 128.202684 
L 226.863069 128.202684 
L 227.158209 128.461646 
L 227.45335 127.080516 
L 227.60092 127.857402 
L 227.74849 127.771081 
L 227.896061 126.994195 
L 228.043631 127.339478 
L 228.929052 124.663537 
L 229.224193 123.455048 
L 229.666904 123.541369 
L 230.699906 132.259755 
L 230.847466 132.864 
L 230.995036 132.777679 
L 231.142606 133.381924 
L 231.290177 133.122962 
L 231.585327 131.741831 
L 231.732887 131.828152 
L 231.880458 131.482869 
L 232.028028 132.691359 
L 232.323168 133.122962 
L 232.618309 134.15881 
L 232.765879 134.072489 
L 233.06102 136.144185 
L 233.20859 136.403147 
L 233.35616 137.438995 
L 233.50373 137.525316 
L 233.651301 137.352674 
L 233.946441 137.611636 
L 234.094011 137.007392 
L 234.536722 138.906446 
L 234.831863 141.323425 
L 235.569714 145.725779 
L 235.864854 146.330023 
L 236.012425 146.847947 
L 236.159995 146.847947 
L 236.307565 146.502664 
L 236.455135 147.19323 
L 236.602706 147.27955 
L 236.750276 147.19323 
L 236.897846 147.538512 
L 237.192987 146.330023 
L 237.488127 146.934268 
L 237.783268 146.588985 
L 238.078408 144.862572 
L 238.373549 147.970116 
L 238.521129 148.142757 
L 238.668699 148.48804 
L 238.816259 148.48804 
L 238.96383 147.624833 
L 239.25897 148.660681 
L 239.554121 150.905018 
L 239.701681 151.422942 
L 239.849251 151.509263 
L 239.996821 152.199828 
L 240.144392 152.113507 
L 240.291962 151.422942 
L 240.734673 151.595583 
L 241.029813 152.631431 
L 241.177383 152.631431 
L 241.767664 155.307372 
L 241.915235 155.738975 
L 242.210375 155.997937 
L 242.505516 153.926241 
L 242.653086 153.7536 
L 242.800656 153.321997 
L 242.948237 153.494638 
L 243.686078 157.465388 
L 243.833658 157.465388 
L 243.981218 157.206426 
L 244.423929 152.372469 
L 244.571499 152.976714 
L 245.01421 158.414916 
L 245.16178 158.414916 
L 245.309351 158.846519 
L 245.604501 157.379068 
L 245.899632 159.882367 
L 246.047202 159.968688 
L 246.342342 161.263498 
L 246.489923 161.090856 
L 246.637493 161.263498 
L 246.932623 160.22765 
L 247.080194 160.486612 
L 247.227764 159.968688 
L 247.374402 160.22765 
L 247.670475 162.817269 
L 247.818045 163.335193 
L 248.113185 165.406889 
L 248.408336 166.183775 
L 248.555896 166.356417 
L 248.703466 166.011134 
L 248.851037 166.615379 
L 248.998607 166.356417 
L 249.146177 165.838493 
L 249.441318 165.924813 
L 249.884028 167.564906 
L 250.031599 167.564906 
L 250.326739 167.996509 
L 250.474309 167.478585 
L 250.62188 168.16915 
L 250.91702 167.305944 
L 251.06459 167.564906 
L 251.212161 168.341792 
L 251.359731 168.428112 
L 251.507301 169.032357 
L 251.654871 169.118678 
L 251.802442 169.37764 
L 252.097582 170.413488 
L 252.392723 170.499808 
L 252.540293 170.240846 
L 252.687863 169.722922 
L 252.835433 169.981884 
L 253.278144 171.190374 
L 253.573285 171.880939 
L 254.015995 173.434711 
L 254.163566 173.866314 
L 254.311136 173.952635 
L 254.458706 173.866314 
L 254.753847 173.952635 
L 254.901417 173.866314 
L 255.196557 174.125276 
L 255.344128 174.038955 
L 255.491698 174.297917 
L 255.786838 175.247445 
L 256.229549 176.110651 
L 256.377119 176.024331 
L 256.67226 175.420086 
L 256.9674 176.283293 
L 257.410111 177.146499 
L 257.557682 177.060179 
L 257.705252 177.23282 
L 257.852822 177.146499 
L 258.443103 178.354988 
L 258.738244 178.61395 
L 259.033394 178.182347 
L 259.328525 176.887537 
L 259.476095 177.405461 
L 259.623665 177.491782 
L 259.771246 177.146499 
L 259.918816 177.31914 
L 260.066376 176.887537 
L 260.213946 176.024331 
L 260.509087 178.096026 
L 260.656657 178.52763 
L 260.951797 179.736119 
L 261.099368 179.82244 
L 261.246938 179.736119 
L 261.542078 178.354988 
L 261.837219 181.030929 
L 261.984789 181.030929 
L 262.27993 181.635174 
L 262.4275 181.462532 
L 262.57507 180.944608 
L 262.72264 180.858288 
L 263.165351 180.167722 
L 263.608062 178.52763 
L 263.903202 180.081402 
L 264.198353 181.376212 
L 264.493483 181.721494 
L 264.641054 181.894136 
L 265.674045 185.260641 
L 266.116756 185.519603 
L 266.411897 184.138473 
L 266.559467 184.311114 
L 266.854618 185.605924 
L 267.149748 187.073375 
L 267.297318 187.073375 
L 267.592459 187.936582 
L 267.887599 188.368185 
L 268.18274 187.76394 
L 268.47788 188.368185 
L 268.625461 188.281864 
L 268.773021 188.540826 
L 268.920591 188.281864 
L 269.363302 188.540826 
L 269.510872 188.281864 
L 269.806012 188.97243 
L 269.953583 189.231392 
L 270.248723 190.180919 
L 270.543864 190.526202 
L 270.691434 190.439881 
L 270.839004 190.526202 
L 271.134145 190.957805 
L 271.724426 190.698843 
L 272.019566 191.303088 
L 272.314707 191.475729 
L 272.609847 191.216767 
L 272.904988 191.821012 
L 273.052558 191.821012 
L 273.200128 191.993653 
L 273.495269 191.734691 
L 273.93798 192.684218 
L 274.08555 192.684218 
L 274.23312 192.425256 
L 274.38069 192.597898 
L 274.528261 193.029501 
L 274.675831 193.115821 
L 274.823401 193.461104 
L 274.970971 194.151669 
L 275.118542 194.151669 
L 275.708823 194.928555 
L 276.003963 195.360159 
L 276.299104 194.928555 
L 276.446674 195.273838 
L 276.594244 195.273838 
L 276.889385 195.964403 
L 277.036955 196.137045 
L 277.184525 196.050724 
L 277.627236 196.654969 
L 278.069947 197.259213 
L 278.512657 197.518175 
L 278.955368 196.741289 
L 279.250509 197.604496 
L 279.545649 198.036099 
L 279.693219 198.036099 
L 279.84079 198.467702 
L 280.13594 198.381382 
L 280.283511 198.640344 
L 280.431071 198.640344 
L 280.578641 198.295061 
L 280.726211 198.295061 
L 281.021362 198.036099 
L 281.168932 198.467702 
L 281.611633 198.726664 
L 282.054343 198.036099 
L 282.349484 198.812985 
L 282.939765 199.676192 
L 283.087335 199.848833 
L 283.234905 199.848833 
L 283.382476 200.021474 
L 283.530046 200.021474 
L 283.677616 199.848833 
L 283.825186 199.935154 
L 283.972757 199.50355 
L 284.120327 199.50355 
L 284.267897 199.676192 
L 284.415467 199.589871 
L 285.596029 201.747888 
L 285.89117 201.575246 
L 286.03874 201.316284 
L 286.186311 201.747888 
L 286.333891 201.834208 
L 286.629021 202.179491 
L 287.219313 202.956377 
L 287.514443 203.30166 
L 287.957154 203.733263 
L 288.252294 203.474301 
L 288.399864 203.129018 
L 288.695005 203.819583 
L 288.990156 204.769111 
L 289.727997 205.9776 
L 289.875567 206.063921 
L 290.170707 205.804959 
L 290.318278 205.459676 
L 290.465848 205.459676 
L 290.613418 205.028073 
L 290.760988 205.287035 
L 291.056129 206.236562 
L 291.64641 207.358731 
L 292.236691 207.962975 
L 292.531842 208.135617 
L 292.974542 207.962975 
L 294.007534 209.603068 
L 294.450245 209.430426 
L 294.597815 209.516747 
L 294.745385 209.430426 
L 294.892955 209.085144 
L 295.483236 210.293633 
L 295.778377 210.984198 
L 296.073517 211.070519 
L 296.663798 211.847405 
L 296.958939 211.761084 
L 297.254079 212.106367 
L 297.54922 212.883253 
L 297.991931 213.055894 
L 298.139501 212.969574 
L 298.287071 213.055894 
L 298.434641 213.314856 
L 298.729782 213.228536 
L 299.024922 213.314856 
L 299.320063 212.53797 
L 299.762774 212.020046 
L 300.057914 212.020046 
L 300.205485 212.192688 
L 300.648195 212.106367 
L 301.090906 211.933726 
L 301.238476 212.106367 
L 301.533617 212.020046 
L 301.828757 212.020046 
L 302.123898 212.365329 
L 302.271468 212.279008 
L 302.566609 212.45165 
L 303.009319 213.055894 
L 303.1569 212.969574 
L 303.45203 213.314856 
L 303.5996 213.487498 
L 304.042311 214.264383 
L 304.337452 214.609666 
L 304.780162 214.782307 
L 304.927733 214.695987 
L 305.370443 215.731835 
L 305.518014 215.904476 
L 305.813154 215.904476 
L 305.960724 216.163438 
L 306.255865 217.112965 
L 307.141286 218.062493 
L 307.436427 217.71721 
L 307.584007 217.199286 
L 307.731567 217.458248 
L 308.174278 219.09834 
L 308.764559 219.357302 
L 308.912129 219.184661 
L 309.0597 219.270982 
L 309.20727 219.184661 
L 309.649981 217.976172 
L 309.797551 217.803531 
L 310.240272 218.062493 
L 310.830543 219.529944 
L 310.978113 219.702585 
L 311.125693 219.702585 
L 312.011105 221.515319 
L 312.306245 221.774281 
L 312.601386 222.033243 
L 312.896526 221.60164 
L 313.044096 221.60164 
L 313.634377 222.637488 
L 313.929518 222.637488 
L 314.077088 222.89645 
L 314.372229 222.464846 
L 314.519799 222.378526 
L 315.405221 224.19126 
L 315.552791 224.27758 
L 316.143072 225.140787 
L 316.733353 225.227107 
L 317.176064 225.658711 
L 317.618774 225.658711 
L 317.766345 225.917673 
L 317.913915 225.917673 
L 318.356636 225.227107 
L 318.504196 225.399749 
L 318.946907 226.780879 
L 319.242057 226.8672 
L 319.537188 227.126162 
L 319.832328 227.039841 
L 320.127469 226.780879 
L 320.570179 226.608238 
L 320.71775 226.608238 
L 320.86532 226.780879 
L 321.01289 226.780879 
L 321.603171 227.385124 
L 321.898312 227.557765 
L 322.193452 227.903048 
L 322.636173 227.903048 
L 322.783733 228.075689 
L 323.374014 229.197858 
L 323.521595 229.111537 
L 323.669155 229.197858 
L 324.111865 229.974744 
L 324.554576 229.888423 
L 324.997287 230.665309 
L 325.439998 230.406347 
L 325.735138 231.010592 
L 326.030279 231.096912 
L 326.325429 231.096912 
L 326.62056 231.614836 
L 326.76813 231.701157 
L 326.9157 231.528516 
L 327.210841 231.701157 
L 327.358411 231.614836 
L 327.653551 231.960119 
L 328.391403 231.873798 
L 328.686543 232.305402 
L 328.981684 232.219081 
L 329.276824 232.13276 
L 329.424395 232.564364 
L 329.571965 232.650684 
L 329.719535 232.564364 
L 329.867105 232.650684 
L 330.309816 233.513891 
L 330.604967 233.513891 
L 330.752527 233.686532 
L 331.047667 234.377098 
L 331.342808 234.463418 
L 331.490378 234.377098 
L 331.637948 234.463418 
L 331.933089 234.981342 
L 332.080659 235.153983 
L 332.37581 234.981342 
L 332.52337 235.067663 
L 332.81851 235.671907 
L 333.261231 235.671907 
L 333.556362 236.103511 
L 333.851502 236.535114 
L 334.146653 236.362473 
L 334.294223 236.448793 
L 334.736924 237.225679 
L 335.032064 236.966717 
L 335.179634 237.139359 
L 335.474775 237.743603 
L 335.769915 237.829924 
L 335.917486 237.657283 
L 336.065056 237.743603 
L 336.360196 238.434169 
L 336.655337 238.520489 
L 336.802917 238.434169 
L 336.950488 238.60681 
L 337.245618 239.211055 
L 337.835899 239.297375 
L 338.27861 239.90162 
L 338.42618 239.90162 
L 338.57375 239.728979 
L 338.72132 239.728979 
L 339.016461 240.419544 
L 339.164031 240.592185 
L 339.606752 240.678506 
L 339.901882 241.19643 
L 340.197023 241.28275 
L 340.344593 241.19643 
L 340.934874 241.800674 
L 341.082444 241.628033 
L 341.230015 241.19643 
L 341.525155 241.110109 
L 341.820296 241.714354 
L 342.263006 241.886995 
L 342.558147 242.318598 
L 342.705717 242.404919 
L 343.148428 242.232278 
L 343.443569 242.318598 
L 343.738709 242.404919 
L 344.03385 242.318598 
L 344.47656 242.318598 
L 344.624131 238.693131 
L 344.919271 225.917673 
L 345.214412 222.464846 
L 345.509552 220.997395 
L 345.657122 220.738433 
L 345.804693 220.738433 
L 347.132825 226.090314 
L 347.427965 226.435597 
L 348.165817 228.766255 
L 348.313397 229.025217 
L 349.051238 231.355874 
L 349.93666 233.34125 
L 350.08423 233.42757 
L 350.37937 234.031815 
L 350.674511 234.72238 
L 351.559932 236.103511 
L 351.707503 236.189831 
L 351.855073 236.103511 
L 352.150213 236.794076 
L 352.445354 237.570962 
L 352.740505 237.829924 
L 352.888075 237.916245 
L 353.183205 238.434169 
L 353.330775 238.434169 
L 353.478346 238.60681 
L 353.625916 238.60681 
L 353.773486 238.779451 
L 354.216197 239.815299 
L 354.511337 239.728979 
L 354.658908 239.815299 
L 354.954048 240.505864 
L 355.101618 240.678506 
L 355.544329 240.678506 
L 355.83947 241.369071 
L 355.98704 241.455392 
L 356.429761 241.110109 
L 356.724891 241.541712 
L 356.872461 241.973316 
L 357.167602 241.886995 
L 357.315172 241.886995 
L 357.610313 242.49124 
L 357.757883 242.57756 
L 358.053034 242.49124 
L 358.643305 243.527088 
L 358.938445 243.440767 
L 359.086015 243.440767 
L 359.381156 243.87237 
L 359.971437 243.78605 
L 360.266577 244.390294 
L 360.561718 244.476615 
L 360.709298 244.390294 
L 360.856869 244.562936 
L 361.151999 244.994539 
L 361.74228 244.994539 
L 362.03742 245.512463 
L 362.184991 245.598783 
L 362.627701 245.426142 
L 362.922842 245.857745 
L 363.660693 245.944066 
L 363.808263 246.203028 
L 364.398555 246.203028 
L 364.693685 246.548311 
L 364.988825 246.634631 
L 365.283966 246.634631 
L 365.579106 247.152555 
L 365.726677 247.325197 
L 366.169387 247.152555 
L 366.612098 247.843121 
L 367.054809 247.7568 
L 367.349949 248.188403 
L 367.49752 248.274724 
L 367.94023 248.102083 
L 368.087801 248.188403 
L 368.382941 248.620007 
L 368.825652 248.447365 
L 369.415933 248.533686 
L 369.858644 248.878969 
L 370.153784 249.224251 
L 370.596505 249.224251 
L 371.039206 249.655855 
L 371.186776 249.742175 
L 371.481917 249.655855 
L 372.072198 249.914817 
L 372.367338 249.914817 
L 372.662479 250.43274 
L 372.810049 250.519061 
L 373.25276 250.34642 
L 373.40033 250.43274 
L 373.5479 250.778023 
L 374.285751 250.864344 
L 374.433322 251.209626 
L 375.171173 251.295947 
L 375.613884 251.554909 
L 375.761464 251.468588 
L 376.499305 251.813871 
L 376.794456 251.900192 
L 377.532297 252.245474 
L 377.827437 252.331795 
L 378.122578 252.590757 
L 378.712859 252.590757 
L 379.007999 253.02236 
L 379.45071 252.93604 
L 379.745851 253.281322 
L 380.040991 253.195002 
L 380.336132 253.108681 
L 380.778842 253.195002 
L 381.221553 253.367643 
L 381.811834 235.758228 
L 382.106985 233.513891 
L 382.254545 233.082288 
L 382.549685 233.168608 
L 382.697256 233.34125 
L 383.582677 235.153983 
L 383.730247 235.326625 
L 384.320528 236.448793 
L 385.35352 238.434169 
L 386.238942 240.333223 
L 386.534082 240.678506 
L 386.681653 240.678506 
L 387.271944 241.455392 
L 387.862215 242.318598 
L 388.157365 242.232278 
L 389.041844 242.663881 
L 389.485487 242.750202 
L 390.518479 244.390294 
L 391.699041 245.685104 
L 391.994182 245.944066 
L 392.289322 246.203028 
L 392.879603 246.634631 
L 393.174744 246.893593 
L 393.912595 247.411517 
L 394.060165 247.584159 
L 394.502876 247.670479 
L 394.798016 247.929441 
L 394.945587 248.102083 
L 395.240737 248.188403 
L 395.388308 248.274724 
L 395.535868 248.188403 
L 395.831008 248.620007 
L 396.126159 248.620007 
L 396.421289 248.878969 
L 397.454281 249.569534 
L 397.601851 249.742175 
L 397.896992 249.828496 
L 398.487273 250.087458 
L 398.487273 250.087458 
" clip-path="url(#pf665bb5fd7)" style="fill: none; stroke: #1f77b4; stroke-width: 1.5; stroke-linecap: square"/>
   </g>
   <g id="patch_3">
    <path d="M 57.6 276.48 
L 57.6 41.472 
" style="fill: none; stroke: #000000; stroke-width: 0.8; stroke-linejoin: miter; stroke-linecap: square"/>
   </g>
   <g id="patch_4">
    <path d="M 414.72 276.48 
L 414.72 41.472 
" style="fill: none; stroke: #000000; stroke-width: 0.8; stroke-linejoin: miter; stroke-linecap: square"/>
   </g>
   <g id="patch_5">
    <path d="M 57.6 276.48 
L 414.72 276.48 
" style="fill: none; stroke: #000000; stroke-width: 0.8; stroke-linejoin: miter; stroke-linecap: square"/>
   </g>
   <g id="patch_6">
    <path d="M 57.6 41.472 
L 414.72 41.472 
" style="fill: none; stroke: #000000; stroke-width: 0.8; stroke-linejoin: miter; stroke-linecap: square"/>
   </g>
  </g>
 </g>
 <defs>
  <clipPath id="pf665bb5fd7">
   <rect x="57.6" y="41.472" width="357.12" height="235.008"/>
  </clipPath>
 </defs>
</svg>
